<svg version="1.1" viewBox="48.583569405099155 107.632 187.39376770538243 69.93599999999999" xmlns:xlink="http://www.w3.org/1999/xlink" xmlns="http://www.w3.org/2000/svg" style="max-height: 500px" width="187.39376770538243" height="69.93599999999999">
<g id="surface1">
<path d="M 57.039062 131.351562 C 57.039062 134.871094 59.796875 136.242188 62.929688 136.242188 C 64.984375 136.242188 68.117188 135.648438 68.117188 132.945312 C 68.117188 130.089844 64.125 129.609375 60.207031 128.570312 C 56.253906 127.535156 52.261719 126.015625 52.261719 121.046875 C 52.261719 115.632812 57.410156 113.039062 62.222656 113.039062 C 67.78125 113.039062 72.890625 115.449219 72.890625 121.566406 L 67.21875 121.566406 C 67.035156 118.378906 64.757812 117.5625 61.960938 117.5625 C 60.097656 117.5625 57.933594 118.339844 57.933594 120.566406 C 57.933594 122.605469 59.199219 122.863281 65.878906 124.570312 C 67.816406 125.050781 73.785156 126.273438 73.785156 132.277344 C 73.785156 137.132812 69.945312 140.765625 62.707031 140.765625 C 56.8125 140.765625 51.292969 137.875 51.367188 131.351562 Z M 57.039062 131.351562" style="stroke:none;fill-rule:nonzero;fill:rgb(0%,0.392157%,2.352941%);fill-opacity:1;"/>
<path d="M 87.878906 128.402344 C 87.394531 125.710938 86.238281 124.292969 83.664062 124.292969 C 80.304688 124.292969 79.335938 126.90625 79.261719 128.402344 Z M 79.261719 131.765625 C 79.410156 135.125 81.050781 136.65625 84 136.65625 C 86.125 136.65625 87.839844 135.347656 88.175781 134.152344 L 92.839844 134.152344 C 91.347656 138.710938 88.175781 140.652344 83.8125 140.652344 C 77.734375 140.652344 73.964844 136.46875 73.964844 130.492188 C 73.964844 124.703125 77.957031 120.296875 83.8125 120.296875 C 90.378906 120.296875 93.546875 125.824219 93.175781 131.765625 Z M 79.261719 131.765625" style="stroke:none;fill-rule:nonzero;fill:rgb(0%,0.392157%,2.352941%);fill-opacity:1;"/>
<path d="M 93.667969 120.816406 L 98.703125 120.816406 L 98.703125 123.507812 L 98.816406 123.507812 C 100.160156 121.34375 102.472656 120.296875 104.710938 120.296875 C 110.34375 120.296875 111.757812 123.46875 111.757812 128.25 L 111.757812 140.128906 L 106.460938 140.128906 L 106.460938 129.222656 C 106.460938 126.046875 105.53125 124.480469 103.066406 124.480469 C 100.195312 124.480469 98.964844 126.085938 98.964844 130.007812 L 98.964844 140.128906 L 93.667969 140.128906 Z M 93.667969 120.816406" style="stroke:none;fill-rule:nonzero;fill:rgb(0%,0.392157%,2.352941%);fill-opacity:1;"/>
<path d="M 117.222656 133.855469 C 117.257812 136.171875 119.199219 137.105469 121.289062 137.105469 C 122.816406 137.105469 124.753906 136.507812 124.753906 134.640625 C 124.753906 133.03125 122.554688 132.472656 118.75 131.652344 C 115.691406 130.980469 112.632812 129.898438 112.632812 126.496094 C 112.632812 121.566406 116.886719 120.296875 121.027344 120.296875 C 125.242188 120.296875 129.121094 121.714844 129.53125 126.457031 L 124.496094 126.457031 C 124.347656 124.40625 122.777344 123.847656 120.875 123.847656 C 119.683594 123.847656 117.929688 124.070312 117.929688 125.636719 C 117.929688 127.542969 120.914062 127.804688 123.933594 128.515625 C 127.03125 129.222656 130.054688 130.34375 130.054688 133.929688 C 130.054688 139.011719 125.652344 140.652344 121.25 140.652344 C 116.773438 140.652344 112.410156 138.972656 112.1875 133.855469 Z M 117.222656 133.855469" style="stroke:none;fill-rule:nonzero;fill:rgb(0%,0.392157%,2.352941%);fill-opacity:1;"/>
<path d="M 130.5 120.820312 L 135.792969 120.820312 L 135.792969 140.128906 L 130.5 140.128906 Z M 135.792969 117.832031 L 130.496094 117.832031 L 130.496094 113.460938 L 135.792969 113.460938 Z M 135.792969 117.832031" style="stroke:none;fill-rule:nonzero;fill:rgb(0%,0.392157%,2.352941%);fill-opacity:1;"/>
<path d="M 146.269531 136.65625 C 149.886719 136.65625 150.972656 133.554688 150.972656 130.492188 C 150.972656 127.394531 149.886719 124.292969 146.269531 124.292969 C 142.6875 124.292969 141.605469 127.394531 141.605469 130.492188 C 141.605469 133.554688 142.6875 136.65625 146.269531 136.65625 M 146.269531 120.296875 C 152.347656 120.296875 156.265625 124.332031 156.265625 130.492188 C 156.265625 136.617188 152.347656 140.652344 146.269531 140.652344 C 140.226562 140.652344 136.3125 136.617188 136.3125 130.492188 C 136.3125 124.332031 140.226562 120.296875 146.269531 120.296875" style="stroke:none;fill-rule:nonzero;fill:rgb(0%,0.392157%,2.352941%);fill-opacity:1;"/>
<path d="M 157.207031 140.675781 L 157.207031 114.496094 L 162.527344 114.496094 L 162.527344 136.226562 L 175.761719 136.226562 L 175.761719 140.675781 Z M 157.207031 140.675781" style="stroke:none;fill-rule:nonzero;fill:rgb(50.980392%,90.980392%,24.705882%);fill-opacity:1;"/>
<path d="M 188.214844 131.492188 C 187.570312 131.707031 186.542969 131.96875 185.140625 132.265625 C 183.738281 132.566406 182.820312 132.863281 182.390625 133.148438 C 181.730469 133.617188 181.402344 134.210938 181.402344 134.933594 C 181.402344 135.640625 181.667969 136.253906 182.191406 136.769531 C 182.722656 137.285156 183.390625 137.542969 184.207031 137.542969 C 185.117188 137.542969 185.988281 137.242188 186.8125 136.640625 C 187.425781 136.1875 187.828125 135.628906 188.019531 134.96875 C 188.148438 134.535156 188.214844 133.714844 188.214844 132.5 Z M 181.457031 127.390625 L 176.871094 126.558594 C 177.386719 124.710938 178.273438 123.34375 179.53125 122.453125 C 180.789062 121.566406 182.660156 121.121094 185.140625 121.121094 C 187.394531 121.121094 189.074219 121.390625 190.175781 121.921875 C 191.277344 122.457031 192.054688 123.136719 192.503906 123.957031 C 192.953125 124.78125 193.179688 126.289062 193.179688 128.484375 L 193.125 134.390625 C 193.125 136.074219 193.207031 137.3125 193.367188 138.109375 C 193.527344 138.90625 193.832031 139.765625 194.277344 140.675781 L 189.277344 140.675781 C 189.144531 140.339844 188.984375 139.839844 188.792969 139.179688 C 188.707031 138.882812 188.648438 138.683594 188.609375 138.585938 C 187.75 139.425781 186.824219 140.058594 185.84375 140.476562 C 184.859375 140.898438 183.808594 141.105469 182.695312 141.105469 C 180.730469 141.105469 179.179688 140.574219 178.046875 139.503906 C 176.917969 138.4375 176.347656 137.085938 176.347656 135.453125 C 176.347656 134.375 176.605469 133.410156 177.125 132.5625 C 177.636719 131.71875 178.359375 131.070312 179.289062 130.621094 C 180.21875 130.167969 181.558594 129.777344 183.308594 129.441406 C 185.667969 128.996094 187.304688 128.582031 188.214844 128.199219 L 188.214844 127.695312 C 188.214844 126.722656 187.976562 126.027344 187.496094 125.613281 C 187.015625 125.199219 186.113281 124.992188 184.78125 124.992188 C 183.882812 124.992188 183.183594 125.171875 182.679688 125.523438 C 182.175781 125.878906 181.765625 126.5 181.457031 127.390625" style="stroke:none;fill-rule:nonzero;fill:rgb(50.980392%,90.980392%,24.705882%);fill-opacity:1;"/>
<path d="M 201.117188 130.699219 C 201.117188 132.679688 201.429688 134.144531 202.054688 135.09375 C 202.929688 136.4375 204.09375 137.109375 205.542969 137.109375 C 206.65625 137.109375 207.605469 136.632812 208.394531 135.679688 C 209.175781 134.726562 209.570312 133.222656 209.570312 131.167969 C 209.570312 128.984375 209.175781 127.410156 208.382812 126.441406 C 207.59375 125.476562 206.578125 124.992188 205.34375 124.992188 C 204.132812 124.992188 203.128906 125.464844 202.324219 126.40625 C 201.519531 127.347656 201.117188 128.78125 201.117188 130.699219 M 196.105469 140.675781 L 196.105469 114.28125 L 201.15625 114.28125 L 201.15625 123.785156 C 202.714844 122.007812 204.558594 121.121094 206.691406 121.121094 C 209.019531 121.121094 210.941406 121.964844 212.464844 123.652344 C 213.988281 125.339844 214.75 127.761719 214.75 130.917969 C 214.75 134.183594 213.972656 136.695312 212.421875 138.460938 C 210.867188 140.226562 208.980469 141.105469 206.765625 141.105469 C 205.675781 141.105469 204.597656 140.835938 203.539062 140.289062 C 202.476562 139.742188 201.5625 138.933594 200.796875 137.867188 L 200.796875 140.675781 Z M 196.105469 140.675781" style="stroke:none;fill-rule:nonzero;fill:rgb(50.980392%,90.980392%,24.705882%);fill-opacity:1;"/>
<path d="M 215.191406 135.21875 L 220.261719 134.445312 C 220.476562 135.429688 220.914062 136.179688 221.574219 136.6875 C 222.234375 137.199219 223.15625 137.453125 224.34375 137.453125 C 225.648438 137.453125 226.632812 137.210938 227.289062 136.730469 C 227.734375 136.398438 227.957031 135.945312 227.957031 135.382812 C 227.957031 134.996094 227.835938 134.679688 227.597656 134.425781 C 227.347656 134.1875 226.78125 133.964844 225.90625 133.761719 C 221.832031 132.859375 219.246094 132.039062 218.160156 131.296875 C 216.648438 130.261719 215.894531 128.828125 215.894531 126.992188 C 215.894531 125.335938 216.542969 123.941406 217.851562 122.8125 C 219.160156 121.683594 221.183594 121.121094 223.929688 121.121094 C 226.542969 121.121094 228.484375 121.546875 229.757812 122.398438 C 231.023438 123.253906 231.902344 124.511719 232.382812 126.183594 L 227.617188 127.0625 C 227.410156 126.320312 227.023438 125.75 226.457031 125.351562 C 225.886719 124.957031 225.074219 124.757812 224.019531 124.757812 C 222.6875 124.757812 221.738281 124.945312 221.160156 125.316406 C 220.777344 125.582031 220.585938 125.925781 220.585938 126.34375 C 220.585938 126.703125 220.753906 127.007812 221.089844 127.261719 C 221.542969 127.597656 223.117188 128.070312 225.808594 128.683594 C 228.5 129.296875 230.378906 130.046875 231.445312 130.933594 C 232.5 131.835938 233.027344 133.089844 233.027344 134.699219 C 233.027344 136.449219 232.296875 137.957031 230.832031 139.214844 C 229.371094 140.476562 227.207031 141.105469 224.34375 141.105469 C 221.742188 141.105469 219.683594 140.578125 218.167969 139.523438 C 216.648438 138.464844 215.660156 137.03125 215.191406 135.21875" style="stroke:none;fill-rule:nonzero;fill:rgb(50.980392%,90.980392%,24.705882%);fill-opacity:1;"/>
<path d="M 162.140625 156.25 C 161.640625 156.265625 161.292969 155.964844 161.277344 155.507812 C 161.269531 155.339844 161.3125 155.191406 161.429688 155.019531 C 161.539062 154.800781 161.566406 154.777344 161.5625 154.679688 C 161.550781 154.390625 161.117188 154.382812 160.996094 154.386719 C 159.367188 154.441406 158.933594 156.648438 158.585938 158.441406 L 158.414062 159.386719 C 159.355469 159.523438 160.023438 159.351562 160.394531 159.113281 C 160.917969 158.773438 160.25 158.421875 160.332031 158.035156 C 160.417969 157.640625 160.777344 157.449219 161.0625 157.441406 C 161.460938 157.433594 161.746094 157.847656 161.738281 158.265625 C 161.722656 158.960938 160.800781 159.917969 158.957031 159.878906 C 158.734375 159.871094 158.527344 159.855469 158.335938 159.835938 L 157.988281 161.753906 C 157.675781 163.210938 157.261719 165.199219 155.78125 166.933594 C 154.511719 168.445312 153.222656 168.679688 152.644531 168.699219 C 151.5625 168.738281 150.847656 168.160156 150.820312 167.390625 C 150.796875 166.644531 151.457031 166.238281 151.886719 166.222656 C 152.464844 166.203125 152.863281 166.621094 152.878906 167.105469 C 152.894531 167.511719 152.679688 167.640625 152.539062 167.71875 C 152.445312 167.792969 152.304688 167.871094 152.308594 168.039062 C 152.3125 168.109375 152.390625 168.277344 152.628906 168.269531 C 153.085938 168.253906 153.390625 168.027344 153.601562 167.875 C 154.65625 166.996094 155.058594 165.464844 155.589844 162.679688 L 155.703125 162.003906 C 155.882812 161.097656 156.082031 160.085938 156.390625 159.082031 C 155.648438 158.523438 155.203125 157.828125 154.203125 157.558594 C 153.519531 157.371094 153.101562 157.527344 152.808594 157.898438 C 152.460938 158.339844 152.578125 158.910156 152.914062 159.246094 L 153.46875 159.859375 C 154.148438 160.648438 154.519531 161.257812 154.378906 162.082031 C 154.15625 163.394531 152.59375 164.40625 150.746094 163.835938 C 149.167969 163.347656 148.875 162.230469 149.0625 161.613281 C 149.230469 161.070312 149.660156 160.96875 150.082031 161.097656 C 150.53125 161.238281 150.707031 161.785156 150.578125 162.207031 C 150.566406 162.253906 150.542969 162.328125 150.496094 162.429688 C 150.441406 162.542969 150.34375 162.644531 150.304688 162.78125 C 150.203125 163.113281 150.65625 163.347656 150.96875 163.445312 C 151.675781 163.664062 152.363281 163.292969 152.539062 162.722656 C 152.703125 162.195312 152.371094 161.828125 152.230469 161.6875 L 151.5625 160.972656 C 151.257812 160.628906 150.585938 159.679688 150.914062 158.613281 C 151.039062 158.199219 151.304688 157.765625 151.695312 157.472656 C 152.507812 156.867188 153.398438 156.765625 154.242188 157.007812 C 155.335938 157.324219 155.859375 158.046875 156.542969 158.609375 C 156.921875 157.488281 157.453125 156.390625 158.246094 155.464844 C 158.964844 154.625 159.929688 154.015625 161.03125 153.976562 C 162.136719 153.9375 162.96875 154.441406 163 155.234375 C 163.007812 155.570312 162.816406 156.226562 162.140625 156.25 M 156.277344 149.949219 C 150.273438 149.949219 145.40625 154.820312 145.40625 160.835938 C 145.40625 166.847656 150.273438 171.722656 156.277344 171.722656 C 162.285156 171.722656 167.152344 166.847656 167.152344 160.835938 C 167.152344 154.820312 162.285156 149.949219 156.277344 149.949219" style="stroke:none;fill-rule:nonzero;fill:rgb(10.196078%,9.019608%,10.196078%);fill-opacity:1;"/>
<path d="M 211.328125 165.1875 C 213.109375 165.1875 213.898438 163.566406 213.898438 162.09375 C 213.898438 160.523438 212.945312 159.003906 211.328125 159.003906 C 209.695312 159.003906 208.742188 160.523438 208.742188 162.09375 C 208.742188 163.566406 209.535156 165.1875 211.328125 165.1875 M 211.328125 157.769531 C 213.835938 157.769531 215.515625 159.585938 215.515625 162.09375 C 215.515625 164.457031 213.804688 166.417969 211.328125 166.417969 C 208.839844 166.417969 207.125 164.457031 207.125 162.09375 C 207.125 159.585938 208.808594 157.769531 211.328125 157.769531" style="stroke:none;fill-rule:nonzero;fill:rgb(20%,20%,20%);fill-opacity:1;"/>
<path d="M 206.917969 158.539062 L 206.917969 157.964844 L 204.734375 157.964844 L 204.734375 157.179688 C 204.734375 156.0625 204.894531 155.21875 206.203125 155.21875 C 206.230469 155.21875 206.253906 155.222656 206.28125 155.222656 C 206.28125 155.222656 206.28125 155.21875 206.285156 155.21875 C 206.648438 155.246094 206.949219 154.949219 206.972656 154.585938 L 206.996094 154.085938 C 206.691406 154.039062 206.367188 153.988281 205.980469 153.988281 C 203.730469 153.988281 203.214844 155.300781 203.214844 157.308594 L 203.214844 157.964844 L 201.273438 157.964844 L 201.273438 158.605469 C 201.324219 158.9375 201.605469 159.195312 201.953125 159.195312 C 201.957031 159.195312 201.957031 159.195312 201.957031 159.195312 L 203.214844 159.195312 L 203.214844 166.222656 L 204.050781 166.222656 C 204.054688 166.222656 204.050781 166.222656 204.054688 166.222656 C 204.402344 166.222656 204.6875 165.960938 204.734375 165.625 L 204.734375 159.195312 L 206.253906 159.195312 C 206.613281 159.183594 206.898438 158.898438 206.917969 158.539062" style="stroke:none;fill-rule:nonzero;fill:rgb(20%,20%,20%);fill-opacity:1;"/>
<path d="M 186.671875 157.964844 C 186.667969 157.964844 186.667969 157.96875 186.664062 157.96875 C 186.34375 157.96875 186.03125 158.1875 185.898438 158.484375 L 183.804688 164.796875 L 183.773438 164.796875 L 181.726562 158.488281 C 181.59375 158.1875 181.28125 157.96875 180.960938 157.96875 C 180.957031 157.96875 180.953125 157.964844 180.953125 157.964844 L 179.890625 157.964844 L 182.691406 165.671875 C 182.789062 165.949219 182.980469 166.371094 182.980469 166.546875 C 182.980469 166.707031 182.527344 168.585938 181.167969 168.585938 C 181.136719 168.585938 181.101562 168.582031 181.070312 168.582031 C 180.722656 168.5625 180.460938 168.804688 180.402344 169.175781 L 180.359375 169.703125 C 180.636719 169.753906 180.910156 169.816406 181.398438 169.816406 C 183.402344 169.816406 184 167.988281 184.566406 166.402344 L 187.605469 157.964844 Z M 186.671875 157.964844" style="stroke:none;fill-rule:nonzero;fill:rgb(20%,20%,20%);fill-opacity:1;"/>
<path d="M 177.007812 159.640625 C 175.753906 159 174.378906 158.5625 174.355469 157.269531 C 174.359375 155.894531 175.621094 155.535156 176.59375 155.535156 C 176.597656 155.535156 176.601562 155.535156 176.601562 155.535156 C 177.023438 155.535156 177.363281 155.574219 177.691406 155.648438 C 177.695312 155.648438 177.695312 155.644531 177.699219 155.644531 C 178.050781 155.667969 178.339844 155.394531 178.382812 155.050781 L 178.410156 154.554688 C 177.773438 154.394531 177.105469 154.3125 176.527344 154.3125 C 174.414062 154.328125 172.84375 155.390625 172.839844 157.421875 C 172.84375 159.199219 174.039062 159.886719 175.324219 160.511719 C 176.585938 161.117188 177.96875 161.621094 177.980469 163.085938 C 177.972656 164.613281 176.496094 165.179688 175.480469 165.179688 C 174.886719 165.179688 174.242188 165.03125 173.699219 164.859375 C 173.359375 164.804688 173.078125 165.105469 173.035156 165.503906 L 172.988281 165.949219 C 173.738281 166.1875 174.503906 166.398438 175.273438 166.398438 L 175.28125 166.398438 C 177.648438 166.382812 179.488281 165.4375 179.496094 162.984375 C 179.492188 161.089844 178.289062 160.292969 177.007812 159.640625" style="stroke:none;fill-rule:nonzero;fill:rgb(20%,20%,20%);fill-opacity:1;"/>
<path d="M 199.996094 166.222656 C 200 166.222656 200 166.222656 200 166.222656 C 200.328125 166.222656 200.601562 165.992188 200.671875 165.683594 L 200.671875 160.929688 C 200.671875 159.132812 199.910156 157.769531 197.808594 157.769531 C 197.0625 157.769531 195.820312 158.191406 195.253906 159.375 C 194.816406 158.257812 193.863281 157.769531 192.910156 157.769531 C 191.695312 157.769531 190.871094 158.207031 190.289062 159.164062 L 190.257812 159.164062 L 190.257812 158.648438 C 190.253906 158.273438 189.945312 157.96875 189.570312 157.96875 C 189.566406 157.96875 189.566406 157.964844 189.5625 157.964844 L 188.835938 157.964844 L 188.835938 166.222656 L 189.65625 166.222656 C 189.660156 166.222656 189.660156 166.222656 189.660156 166.222656 C 190.039062 166.222656 190.347656 165.914062 190.347656 165.53125 C 190.347656 165.523438 190.351562 165.519531 190.355469 165.511719 L 190.355469 162.0625 C 190.355469 160.523438 190.96875 159.003906 192.519531 159.003906 C 193.75 159.003906 193.992188 160.28125 193.992188 161.300781 L 193.992188 166.222656 L 194.828125 166.222656 C 194.828125 166.222656 194.828125 166.222656 194.832031 166.222656 C 195.191406 166.222656 195.480469 165.945312 195.511719 165.59375 L 195.511719 162.0625 C 195.511719 160.523438 196.128906 159.003906 197.679688 159.003906 C 198.90625 159.003906 199.152344 160.28125 199.152344 161.300781 L 199.152344 166.222656 Z M 199.996094 166.222656" style="stroke:none;fill-rule:nonzero;fill:rgb(20%,20%,20%);fill-opacity:1;"/>
<path d="M 223.488281 166.222656 C 223.859375 166.222656 224.15625 165.929688 224.175781 165.5625 L 224.175781 161.316406 C 224.175781 159.097656 223.21875 157.769531 221.085938 157.769531 C 219.9375 157.769531 218.839844 158.339844 218.386719 159.277344 L 218.355469 159.277344 L 218.355469 158.660156 C 218.355469 158.660156 218.351562 158.660156 218.351562 158.660156 C 218.351562 158.277344 218.042969 157.96875 217.664062 157.96875 C 217.660156 157.96875 217.660156 157.964844 217.65625 157.964844 L 216.882812 157.964844 L 216.882812 166.222656 L 217.71875 166.222656 C 218.082031 166.222656 218.375 165.941406 218.402344 165.585938 L 218.402344 162.402344 C 218.402344 160.394531 219.179688 159.003906 220.90625 159.003906 C 222.234375 159.082031 222.65625 160.019531 222.65625 161.949219 L 222.65625 166.222656 Z M 223.488281 166.222656" style="stroke:none;fill-rule:nonzero;fill:rgb(20%,20%,20%);fill-opacity:1;"/>
<path d="M 231.667969 157.964844 C 231.667969 157.964844 231.664062 157.96875 231.660156 157.96875 C 231.339844 157.96875 231.03125 158.1875 230.894531 158.484375 L 228.804688 164.796875 L 228.769531 164.796875 L 226.726562 158.488281 C 226.589844 158.1875 226.28125 157.96875 225.957031 157.96875 C 225.953125 157.96875 225.953125 157.964844 225.949219 157.964844 L 224.890625 157.964844 L 227.6875 165.671875 C 227.785156 165.949219 227.980469 166.371094 227.980469 166.546875 C 227.980469 166.707031 227.527344 168.585938 226.167969 168.585938 C 226.132812 168.585938 226.101562 168.582031 226.066406 168.582031 C 225.722656 168.5625 225.460938 168.804688 225.402344 169.175781 L 225.359375 169.703125 C 225.632812 169.753906 225.910156 169.816406 226.394531 169.816406 C 228.398438 169.816406 229 167.988281 229.566406 166.402344 L 232.605469 157.964844 Z M 231.667969 157.964844" style="stroke:none;fill-rule:nonzero;fill:rgb(20%,20%,20%);fill-opacity:1;"/>
<path d="M 59.839844 157.707031 C 59.691406 157.464844 59.503906 157.253906 59.277344 157.070312 C 59.054688 156.886719 58.796875 156.746094 58.515625 156.644531 C 58.230469 156.542969 57.933594 156.492188 57.621094 156.492188 C 57.054688 156.492188 56.570312 156.601562 56.175781 156.820312 C 55.777344 157.039062 55.457031 157.335938 55.210938 157.707031 C 54.964844 158.078125 54.785156 158.496094 54.671875 158.96875 C 54.558594 159.441406 54.503906 159.929688 54.503906 160.4375 C 54.503906 160.917969 54.558594 161.386719 54.671875 161.84375 C 54.785156 162.300781 54.964844 162.710938 55.210938 163.074219 C 55.457031 163.441406 55.777344 163.734375 56.175781 163.953125 C 56.570312 164.175781 57.054688 164.285156 57.621094 164.285156 C 58.394531 164.285156 58.996094 164.046875 59.429688 163.574219 C 59.867188 163.101562 60.128906 162.480469 60.226562 161.707031 L 62.671875 161.707031 C 62.605469 162.425781 62.441406 163.074219 62.171875 163.65625 C 61.90625 164.234375 61.550781 164.730469 61.113281 165.136719 C 60.671875 165.546875 60.15625 165.855469 59.566406 166.070312 C 58.976562 166.285156 58.328125 166.394531 57.621094 166.394531 C 56.742188 166.394531 55.953125 166.242188 55.25 165.933594 C 54.546875 165.628906 53.957031 165.207031 53.472656 164.671875 C 52.992188 164.132812 52.621094 163.503906 52.363281 162.777344 C 52.105469 162.054688 51.976562 161.273438 51.976562 160.4375 C 51.976562 159.578125 52.105469 158.78125 52.363281 158.042969 C 52.621094 157.308594 52.992188 156.667969 53.472656 156.121094 C 53.957031 155.574219 54.546875 155.144531 55.25 154.832031 C 55.953125 154.519531 56.742188 154.363281 57.621094 154.363281 C 58.253906 154.363281 58.851562 154.457031 59.414062 154.636719 C 59.976562 154.820312 60.480469 155.085938 60.925781 155.4375 C 61.371094 155.785156 61.738281 156.214844 62.027344 156.730469 C 62.316406 157.246094 62.5 157.835938 62.574219 158.503906 L 60.128906 158.503906 C 60.085938 158.214844 59.992188 157.949219 59.839844 157.707031" style="stroke:none;fill-rule:nonzero;fill:rgb(19.607843%,19.607843%,19.607843%);fill-opacity:1;"/>
<path d="M 65.757812 157.8125 L 65.757812 159.355469 L 65.789062 159.355469 C 65.898438 159.097656 66.042969 158.859375 66.226562 158.640625 C 66.40625 158.421875 66.617188 158.230469 66.851562 158.078125 C 67.089844 157.921875 67.339844 157.800781 67.609375 157.714844 C 67.875 157.628906 68.15625 157.585938 68.445312 157.585938 C 68.59375 157.585938 68.761719 157.613281 68.941406 157.667969 L 68.941406 159.792969 C 68.835938 159.769531 68.707031 159.75 68.558594 159.734375 C 68.40625 159.71875 68.261719 159.710938 68.121094 159.710938 C 67.703125 159.710938 67.351562 159.78125 67.0625 159.921875 C 66.773438 160.058594 66.539062 160.25 66.363281 160.492188 C 66.183594 160.734375 66.058594 161.015625 65.984375 161.335938 C 65.910156 161.660156 65.871094 162.007812 65.871094 162.382812 L 65.871094 166.136719 L 63.589844 166.136719 L 63.589844 157.8125 Z M 65.757812 157.8125" style="stroke:none;fill-rule:nonzero;fill:rgb(19.607843%,19.607843%,19.607843%);fill-opacity:1;"/>
<path d="M 71.820312 156.78125 L 73.363281 154.492188 L 75.890625 154.492188 L 73.414062 156.78125 Z M 74.304688 159.757812 C 74.03125 159.457031 73.617188 159.308594 73.058594 159.308594 C 72.695312 159.308594 72.390625 159.371094 72.152344 159.492188 C 71.910156 159.617188 71.71875 159.769531 71.570312 159.953125 C 71.425781 160.136719 71.324219 160.328125 71.265625 160.53125 C 71.207031 160.734375 71.171875 160.917969 71.160156 161.078125 L 74.875 161.078125 C 74.769531 160.5 74.578125 160.058594 74.304688 159.757812 M 71.726562 164.140625 C 72.066406 164.472656 72.5625 164.636719 73.203125 164.636719 C 73.664062 164.636719 74.0625 164.523438 74.394531 164.292969 C 74.726562 164.0625 74.929688 163.816406 75.003906 163.558594 L 77.015625 163.558594 C 76.695312 164.558594 76.199219 165.273438 75.535156 165.699219 C 74.871094 166.128906 74.066406 166.34375 73.125 166.34375 C 72.46875 166.34375 71.878906 166.242188 71.355469 166.03125 C 70.828125 165.820312 70.382812 165.523438 70.019531 165.136719 C 69.65625 164.75 69.375 164.289062 69.175781 163.753906 C 68.976562 163.214844 68.878906 162.625 68.878906 161.980469 C 68.878906 161.359375 68.980469 160.777344 69.183594 160.242188 C 69.386719 159.707031 69.675781 159.242188 70.050781 158.847656 C 70.425781 158.457031 70.875 158.148438 71.394531 157.921875 C 71.914062 157.699219 72.492188 157.585938 73.125 157.585938 C 73.832031 157.585938 74.449219 157.722656 74.972656 157.996094 C 75.5 158.269531 75.929688 158.636719 76.269531 159.097656 C 76.605469 159.558594 76.847656 160.085938 77 160.675781 C 77.148438 161.265625 77.203125 161.882812 77.160156 162.527344 L 71.160156 162.527344 C 71.195312 163.269531 71.382812 163.804688 71.726562 164.140625" style="stroke:none;fill-rule:nonzero;fill:rgb(19.607843%,19.607843%,19.607843%);fill-opacity:1;"/>
<path d="M 82.765625 162.261719 C 82.621094 162.3125 82.464844 162.351562 82.296875 162.382812 C 82.132812 162.417969 81.957031 162.441406 81.773438 162.464844 C 81.59375 162.484375 81.410156 162.511719 81.226562 162.542969 C 81.058594 162.578125 80.886719 162.621094 80.722656 162.671875 C 80.554688 162.726562 80.410156 162.800781 80.289062 162.890625 C 80.164062 162.980469 80.066406 163.097656 79.988281 163.238281 C 79.914062 163.375 79.878906 163.554688 79.878906 163.769531 C 79.878906 163.972656 79.914062 164.144531 79.988281 164.285156 C 80.066406 164.421875 80.167969 164.535156 80.296875 164.613281 C 80.425781 164.695312 80.574219 164.75 80.746094 164.78125 C 80.917969 164.816406 81.09375 164.832031 81.277344 164.832031 C 81.726562 164.832031 82.074219 164.757812 82.320312 164.605469 C 82.566406 164.457031 82.75 164.277344 82.867188 164.066406 C 82.988281 163.855469 83.058594 163.644531 83.085938 163.429688 C 83.113281 163.214844 83.125 163.042969 83.125 162.914062 L 83.125 162.0625 C 83.03125 162.148438 82.910156 162.214844 82.765625 162.261719 M 78.253906 159.035156 C 78.488281 158.679688 78.789062 158.394531 79.152344 158.179688 C 79.519531 157.964844 79.929688 157.8125 80.382812 157.722656 C 80.839844 157.632812 81.296875 157.585938 81.757812 157.585938 C 82.175781 157.585938 82.601562 157.613281 83.03125 157.675781 C 83.457031 157.734375 83.847656 157.847656 84.203125 158.019531 C 84.558594 158.191406 84.847656 158.429688 85.070312 158.738281 C 85.296875 159.042969 85.410156 159.449219 85.410156 159.953125 L 85.410156 164.285156 C 85.410156 164.660156 85.429688 165.019531 85.472656 165.363281 C 85.515625 165.707031 85.589844 165.964844 85.699219 166.136719 L 83.382812 166.136719 C 83.339844 166.007812 83.304688 165.875 83.277344 165.742188 C 83.25 165.605469 83.234375 165.46875 83.222656 165.332031 C 82.859375 165.707031 82.429688 165.96875 81.9375 166.121094 C 81.441406 166.269531 80.9375 166.34375 80.425781 166.34375 C 80.027344 166.34375 79.65625 166.296875 79.316406 166.199219 C 78.972656 166.101562 78.671875 165.953125 78.414062 165.75 C 78.15625 165.546875 77.957031 165.289062 77.8125 164.976562 C 77.667969 164.664062 77.59375 164.292969 77.59375 163.863281 C 77.59375 163.394531 77.675781 163.003906 77.84375 162.699219 C 78.007812 162.390625 78.222656 162.148438 78.488281 161.964844 C 78.75 161.78125 79.050781 161.644531 79.386719 161.554688 C 79.726562 161.464844 80.066406 161.390625 80.40625 161.335938 C 80.75 161.285156 81.089844 161.242188 81.421875 161.207031 C 81.753906 161.175781 82.046875 161.128906 82.304688 161.0625 C 82.5625 161 82.765625 160.90625 82.917969 160.78125 C 83.066406 160.660156 83.136719 160.476562 83.125 160.242188 C 83.125 159.996094 83.085938 159.800781 83.003906 159.65625 C 82.925781 159.507812 82.816406 159.398438 82.683594 159.316406 C 82.550781 159.234375 82.394531 159.183594 82.21875 159.15625 C 82.039062 159.128906 81.851562 159.117188 81.644531 159.117188 C 81.195312 159.117188 80.84375 159.210938 80.585938 159.40625 C 80.328125 159.597656 80.175781 159.921875 80.136719 160.371094 L 77.851562 160.371094 C 77.882812 159.835938 78.015625 159.390625 78.253906 159.035156" style="stroke:none;fill-rule:nonzero;fill:rgb(19.607843%,19.607843%,19.607843%);fill-opacity:1;"/>
<path d="M 91.183594 157.8125 L 91.183594 159.339844 L 89.507812 159.339844 L 89.507812 163.460938 C 89.507812 163.847656 89.574219 164.105469 89.703125 164.234375 C 89.832031 164.363281 90.089844 164.429688 90.476562 164.429688 C 90.601562 164.429688 90.726562 164.421875 90.84375 164.414062 C 90.960938 164.402344 91.074219 164.386719 91.183594 164.363281 L 91.183594 166.136719 C 90.988281 166.167969 90.773438 166.1875 90.539062 166.199219 C 90.304688 166.210938 90.074219 166.214844 89.847656 166.214844 C 89.492188 166.214844 89.160156 166.191406 88.84375 166.144531 C 88.527344 166.09375 88.246094 166 88.007812 165.863281 C 87.765625 165.722656 87.574219 165.523438 87.433594 165.265625 C 87.296875 165.007812 87.226562 164.671875 87.226562 164.25 L 87.226562 159.339844 L 85.84375 159.339844 L 85.84375 157.8125 L 87.226562 157.8125 L 87.226562 155.316406 L 89.507812 155.316406 L 89.507812 157.8125 Z M 91.183594 157.8125" style="stroke:none;fill-rule:nonzero;fill:rgb(19.607843%,19.607843%,19.607843%);fill-opacity:1;"/>
<path d="M 96.738281 159.757812 C 96.464844 159.457031 96.050781 159.308594 95.492188 159.308594 C 95.128906 159.308594 94.824219 159.371094 94.582031 159.492188 C 94.34375 159.617188 94.148438 159.769531 94.003906 159.953125 C 93.859375 160.136719 93.757812 160.328125 93.699219 160.53125 C 93.640625 160.734375 93.605469 160.917969 93.59375 161.078125 L 97.308594 161.078125 C 97.203125 160.5 97.011719 160.058594 96.738281 159.757812 M 94.15625 164.140625 C 94.5 164.472656 94.992188 164.636719 95.636719 164.636719 C 96.097656 164.636719 96.492188 164.523438 96.828125 164.292969 C 97.160156 164.0625 97.363281 163.816406 97.4375 163.558594 L 99.449219 163.558594 C 99.125 164.558594 98.632812 165.273438 97.96875 165.699219 C 97.304688 166.128906 96.5 166.34375 95.554688 166.34375 C 94.902344 166.34375 94.3125 166.242188 93.785156 166.03125 C 93.261719 165.820312 92.816406 165.523438 92.453125 165.136719 C 92.085938 164.75 91.804688 164.289062 91.609375 163.753906 C 91.410156 163.214844 91.308594 162.625 91.308594 161.980469 C 91.308594 161.359375 91.414062 160.777344 91.617188 160.242188 C 91.820312 159.707031 92.109375 159.242188 92.484375 158.847656 C 92.859375 158.457031 93.308594 158.148438 93.828125 157.921875 C 94.347656 157.699219 94.921875 157.585938 95.554688 157.585938 C 96.261719 157.585938 96.878906 157.722656 97.40625 157.996094 C 97.929688 158.269531 98.363281 158.636719 98.699219 159.097656 C 99.039062 159.5625 99.28125 160.085938 99.429688 160.675781 C 99.582031 161.265625 99.636719 161.882812 99.59375 162.527344 L 93.59375 162.527344 C 93.625 163.269531 93.8125 163.804688 94.15625 164.140625" style="stroke:none;fill-rule:nonzero;fill:rgb(19.607843%,19.607843%,19.607843%);fill-opacity:1;"/>
<path d="M 106.007812 166.136719 L 106.007812 164.976562 L 105.960938 164.976562 C 105.671875 165.460938 105.296875 165.808594 104.835938 166.023438 C 104.375 166.238281 103.902344 166.34375 103.417969 166.34375 C 102.808594 166.34375 102.308594 166.265625 101.914062 166.105469 C 101.523438 165.941406 101.214844 165.714844 100.992188 165.417969 C 100.765625 165.125 100.609375 164.765625 100.515625 164.339844 C 100.425781 163.917969 100.378906 163.445312 100.378906 162.929688 L 100.378906 157.8125 L 102.664062 157.8125 L 102.664062 162.511719 C 102.664062 163.199219 102.769531 163.710938 102.984375 164.050781 C 103.199219 164.386719 103.578125 164.558594 104.125 164.558594 C 104.75 164.558594 105.199219 164.371094 105.476562 164.003906 C 105.757812 163.632812 105.894531 163.023438 105.894531 162.175781 L 105.894531 157.8125 L 108.179688 157.8125 L 108.179688 166.136719 Z M 106.007812 166.136719" style="stroke:none;fill-rule:nonzero;fill:rgb(19.607843%,19.607843%,19.607843%);fill-opacity:1;"/>
<path d="M 111.523438 157.8125 L 111.523438 159.355469 L 111.554688 159.355469 C 111.664062 159.097656 111.808594 158.859375 111.988281 158.640625 C 112.171875 158.421875 112.382812 158.230469 112.617188 158.078125 C 112.851562 157.921875 113.105469 157.800781 113.371094 157.714844 C 113.640625 157.628906 113.917969 157.585938 114.210938 157.585938 C 114.359375 157.585938 114.523438 157.613281 114.707031 157.667969 L 114.707031 159.792969 C 114.601562 159.769531 114.472656 159.75 114.320312 159.734375 C 114.171875 159.71875 114.027344 159.710938 113.886719 159.710938 C 113.46875 159.710938 113.117188 159.78125 112.828125 159.921875 C 112.535156 160.058594 112.304688 160.25 112.125 160.492188 C 111.949219 160.734375 111.824219 161.015625 111.75 161.335938 C 111.671875 161.660156 111.636719 162.007812 111.636719 162.382812 L 111.636719 166.136719 L 109.351562 166.136719 L 109.351562 157.8125 Z M 111.523438 157.8125" style="stroke:none;fill-rule:nonzero;fill:rgb(19.607843%,19.607843%,19.607843%);fill-opacity:1;"/>
<path d="M 124.757812 160.957031 C 124.695312 160.640625 124.582031 160.363281 124.429688 160.121094 C 124.273438 159.878906 124.070312 159.683594 123.824219 159.535156 C 123.578125 159.382812 123.269531 159.308594 122.890625 159.308594 C 122.515625 159.308594 122.199219 159.382812 121.945312 159.535156 C 121.6875 159.683594 121.480469 159.882812 121.324219 160.128906 C 121.167969 160.375 121.058594 160.660156 120.988281 160.976562 C 120.917969 161.292969 120.882812 161.621094 120.882812 161.964844 C 120.882812 162.289062 120.917969 162.609375 120.996094 162.929688 C 121.070312 163.253906 121.191406 163.539062 121.355469 163.792969 C 121.523438 164.046875 121.730469 164.25 121.984375 164.40625 C 122.234375 164.558594 122.539062 164.636719 122.890625 164.636719 C 123.269531 164.636719 123.582031 164.5625 123.832031 164.414062 C 124.085938 164.261719 124.285156 164.0625 124.4375 163.808594 C 124.585938 163.558594 124.695312 163.269531 124.757812 162.949219 C 124.824219 162.625 124.855469 162.292969 124.855469 161.949219 C 124.855469 161.605469 124.824219 161.277344 124.757812 160.957031 M 124.855469 165.074219 C 124.585938 165.523438 124.234375 165.847656 123.800781 166.046875 C 123.367188 166.246094 122.875 166.34375 122.328125 166.34375 C 121.707031 166.34375 121.160156 166.222656 120.6875 165.984375 C 120.21875 165.742188 119.828125 165.414062 119.523438 165 C 119.21875 164.585938 118.988281 164.113281 118.832031 163.574219 C 118.675781 163.039062 118.597656 162.480469 118.597656 161.902344 C 118.597656 161.34375 118.675781 160.804688 118.832031 160.28125 C 118.988281 159.761719 119.21875 159.304688 119.523438 158.90625 C 119.828125 158.507812 120.210938 158.1875 120.671875 157.949219 C 121.132812 157.707031 121.671875 157.585938 122.28125 157.585938 C 122.773438 157.585938 123.242188 157.691406 123.6875 157.898438 C 124.132812 158.109375 124.484375 158.417969 124.742188 158.824219 L 124.773438 158.824219 L 124.773438 154.636719 L 127.058594 154.636719 L 127.058594 166.136719 L 124.886719 166.136719 L 124.886719 165.074219 Z M 124.855469 165.074219" style="stroke:none;fill-rule:nonzero;fill:rgb(19.607843%,19.607843%,19.607843%);fill-opacity:1;"/>
<path d="M 133.242188 159.757812 C 132.96875 159.457031 132.550781 159.308594 131.996094 159.308594 C 131.628906 159.308594 131.328125 159.371094 131.085938 159.492188 C 130.84375 159.617188 130.652344 159.769531 130.507812 159.953125 C 130.363281 160.136719 130.261719 160.328125 130.199219 160.53125 C 130.140625 160.734375 130.105469 160.917969 130.097656 161.078125 L 133.8125 161.078125 C 133.703125 160.5 133.515625 160.058594 133.242188 159.757812 M 130.660156 164.140625 C 131.003906 164.472656 131.496094 164.636719 132.140625 164.636719 C 132.601562 164.636719 132.996094 164.523438 133.328125 164.292969 C 133.660156 164.0625 133.863281 163.816406 133.941406 163.558594 L 135.949219 163.558594 C 135.628906 164.558594 135.136719 165.273438 134.46875 165.699219 C 133.804688 166.128906 133 166.34375 132.058594 166.34375 C 131.40625 166.34375 130.816406 166.242188 130.289062 166.03125 C 129.765625 165.820312 129.320312 165.523438 128.953125 165.136719 C 128.589844 164.75 128.308594 164.289062 128.109375 163.753906 C 127.914062 163.214844 127.8125 162.625 127.8125 161.980469 C 127.8125 161.359375 127.914062 160.777344 128.117188 160.242188 C 128.320312 159.707031 128.613281 159.242188 128.988281 158.847656 C 129.363281 158.457031 129.808594 158.148438 130.328125 157.921875 C 130.851562 157.699219 131.425781 157.585938 132.058594 157.585938 C 132.765625 157.585938 133.382812 157.722656 133.90625 157.996094 C 134.433594 158.269531 134.863281 158.636719 135.203125 159.097656 C 135.539062 159.5625 135.785156 160.085938 135.933594 160.675781 C 136.085938 161.265625 136.136719 161.882812 136.09375 162.527344 L 130.097656 162.527344 C 130.128906 163.269531 130.316406 163.804688 130.660156 164.140625" style="stroke:none;fill-rule:nonzero;fill:rgb(19.607843%,19.607843%,19.607843%);fill-opacity:1;"/>
</g>
</svg>